
<svg width="18" height="23" viewBox="0 0 18 23" fill="none" xmlns="http://www.w3.org/2000/svg">
<path d="M9.46667 9.95846C8.13333 9.95846 7 8.8918 7 7.4918H2.66667V6.42513H7.26667C7.26667 6.35846 7.33333 6.2918 7.33333 6.2918L8.13333 4.82513H2.66667V3.75846H8.8L10.3333 1.0918H1C0.466667 1.0918 0 1.55846 0 2.0918V22.4251H13.3333V9.95846H9.46667ZM6.66667 20.0918C5.66667 20.0918 4.8 19.2918 4.8 18.2251C4.8 17.1585 5.66667 16.4251 6.66667 16.4251C7.66667 16.4251 8.53333 17.2251 8.53333 18.2918C8.53333 19.3585 7.66667 20.0918 6.66667 20.0918ZM10 14.8251H3.33333V13.7585H10V14.8251Z" fill="#B32B22"/>
<path d="M6.6667 19.0902C7.10853 19.0902 7.4667 18.7321 7.4667 18.2902C7.4667 17.8484 7.10853 17.4902 6.6667 17.4902C6.22487 17.4902 5.8667 17.8484 5.8667 18.2902C5.8667 18.7321 6.22487 19.0902 6.6667 19.0902Z" fill="#B32B22"/>
<path d="M12.6001 0.42522L8.80014 7.02522C8.60014 7.42522 8.73347 7.95855 9.13347 8.15855C9.2668 8.22522 9.40014 8.29189 9.53347 8.29189H17.1335C17.6001 8.29189 18.0001 7.89189 18.0001 7.42522C18.0001 7.29189 17.9335 7.15855 17.8668 7.02522L14.0668 0.42522C13.8001 0.0252196 13.3335 -0.108114 12.8668 0.0918862C12.7335 0.22522 12.6668 0.291886 12.6001 0.42522Z" fill="#B32B22"/>
</svg>
