<svg width="24" height="24" viewBox="0 0 24 24" fill="none" xmlns="http://www.w3.org/2000/svg">
<path d="M12 0C9.62663 0 7.30655 0.703788 5.33316 2.02236C3.35977 3.34094 1.8217 5.21508 0.913451 7.4078C0.0051994 9.60051 -0.232441 12.0133 0.230582 14.3411C0.693605 16.6689 1.83649 18.807 3.51472 20.4853C5.19295 22.1635 7.33115 23.3064 9.65892 23.7694C11.9867 24.2324 14.3995 23.9948 16.5922 23.0865C18.7849 22.1783 20.6591 20.6402 21.9776 18.6668C23.2962 16.6934 24 14.3734 24 12C24 8.8174 22.7357 5.76515 20.4853 3.51472C18.2348 1.26428 15.1826 0 12 0ZM12 5.14286C12.2543 5.14286 12.5029 5.21826 12.7143 5.35954C12.9257 5.50081 13.0905 5.70162 13.1878 5.93655C13.2852 6.17148 13.3106 6.43 13.261 6.6794C13.2114 6.9288 13.089 7.1579 12.9091 7.33771C12.7293 7.51752 12.5002 7.63997 12.2508 7.68958C12.0014 7.73919 11.7429 7.71373 11.508 7.61642C11.273 7.5191 11.0722 7.35431 10.931 7.14287C10.7897 6.93144 10.7143 6.68286 10.7143 6.42857C10.7143 6.08758 10.8497 5.76055 11.0909 5.51943C11.332 5.27831 11.659 5.14286 12 5.14286ZM15.4286 18.9643H8.57143V17.0357H11.0357V12.1071H9.42858V10.1786H12.9643V17.0357H15.4286V18.9643Z" fill="#0C7A02"/>
</svg>
